<?xml version="1.0" encoding="utf-8"?>
<!DOCTYPE svg PUBLIC "-//W3C//DTD SVG 1.0//EN" "http://www.w3.org/TR/2001/REC-SVG-20010904/DTD/svg10.dtd">
<svg version="1.0" xmlns="http://www.w3.org/2000/svg" width="800px" height="800px" viewBox="0 0 800 800" preserveAspectRatio="xMidYMid meet">
 <g fill="#000b58">
  <path d="M418.8 400.3 l-125.8 -0.3 0 -3.9 c0 -4 -0.3 -3.7 10.1 -12.5 0.9 -0.7 2.4 -3.8 3.4 -6.7 2.5 -7.6 12.3 -27 20.1 -39.6 14.8 -24 19.7 -29.7 61.8 -72 35.2 -35.5 40.4 -40.3 43.1 -40.3 2.7 0 11.2 8.1 74.3 71.3 67.2 67.2 71.2 71.4 71.2 74.7 0 3.2 -1.3 4.8 -13.3 16.8 -11.6 11.6 -13.6 13.2 -16.2 13 -1.7 -0.2 -59.6 -0.4 -128.7 -0.5z"/>
  <path d="M48.9 399.8 c-1.7 -3.3 -1.6 -28 0 -40.3 5.3 -38.9 13.4 -68.5 27.6 -101.5 26.5 -61.7 71.1 -115.8 127 -154.2 30.1 -20.6 67.7 -38.4 103 -48.8 74.1 -21.6 153.4 -18.4 226.3 9.2 17.7 6.7 47.3 21.4 63.4 31.6 42.8 26.9 80 63 108.4 105.2 36.1 53.8 57.8 119.8 60.1 182.8 l0.6 16.2 -11 0 -11 0 -0.7 -12.7 c-2.8 -52.6 -15.3 -98.2 -39.6 -144.2 -16.4 -30.9 -32.8 -53 -59.4 -79.7 -30.2 -30.2 -56 -48.6 -92.9 -66.4 -35.2 -17 -68.7 -26.8 -107.7 -31.6 -16.5 -2.1 -53.7 -2.4 -69.5 -0.6 -66.6 7.6 -126.5 32.3 -178 73.5 -12.9 10.4 -42.1 39.5 -51.6 51.7 -46.3 58.9 -70.5 123.2 -74.5 197.3 l-0.7 12.7 -9.8 0 c-5.5 0 -10 -0.1 -10 -0.2z"/>
  <path d="M511.7 291.2 c-49.5 -49.5 -52.7 -52.9 -52.7 -56.2 0 -3.3 2.7 -6.3 43.8 -47.3 41 -40.9 43.9 -43.7 47.2 -43.7 3.3 0 6.7 3.2 56.3 52.8 46.2 46.2 52.7 53.1 52.7 55.7 0 2.6 -5.6 8.6 -44.3 47.3 -38.6 38.6 -44.6 44.2 -47.2 44.2 -2.6 0 -9.5 -6.5 -55.8 -52.8z m96.6 -34 l4.7 -4.8 -7.8 -7.7 -7.8 -7.7 -4.9 5 -4.9 5 7.4 7.5 c4.1 4.1 7.7 7.5 8 7.5 0.3 0 2.7 -2.2 5.3 -4.8z m-50 -51 l4.7 -4.8 -7.8 -7.7 -7.8 -7.7 -4.9 5 -4.9 5 7.4 7.5 c4.1 4.1 7.7 7.5 8 7.5 0.3 0 2.7 -2.2 5.3 -4.8z"/>
 </g>
 <g fill="#003161">
  <path d="M398.5 759.3 c-70.5 -2.5 -132.4 -22 -190.9 -60.1 -24.3 -15.8 -48.9 -37.6 -68.1 -60.2 -3.8 -4.5 -10.2 -11.7 -14.1 -16 -3.9 -4.3 -11.9 -14.9 -17.7 -23.7 -31.2 -46.9 -50.9 -99.2 -58.3 -155.3 -1.4 -10.4 -2.3 -39 -1.5 -45.2 0.2 -1.6 1.4 -1.8 9.2 -1.8 7.2 0 8.9 -0.3 8.9 -1.5 0 -0.8 0.6 -1.5 1.3 -1.5 1.1 0 1.5 3.6 2 15.8 2.6 63.1 22.1 123.9 55.9 174.5 8.2 12.3 19.7 27.7 20.7 27.7 0.3 0 27 -26.4 59.4 -58.8 l58.7 -58.7 -10.5 -10.5 c-8.7 -8.7 -10.5 -11 -10.5 -13.5 0 -2.6 3.3 -6.3 23.8 -26.8 l23.7 -23.7 -0.3 -9.4 c-0.5 -11.6 0.9 -16.6 4.3 -16.6 1.8 0 2.3 0.4 1.9 1.5 -0.5 1.3 14.2 1.5 125.5 1.7 78.8 0.2 126.6 -0.1 127.2 -0.7 0.5 -0.5 0.9 0.2 0.9 2.1 0 2.6 -3.6 6.5 -26.2 29 -14.5 14.3 -29.4 28.3 -33.3 31.1 -20.7 15 -46.3 28.6 -66.6 35.2 -5.5 1.8 -6.9 2.7 -7.9 5.1 -1.8 4.4 -9.2 10.7 -13.7 11.7 -6.9 1.5 -17.5 0.8 -21.9 -1.5 l-4.1 -2.1 -23.4 23.5 c-20.1 20.1 -23.8 23.4 -26.4 23.4 -2.4 0 -4.8 -1.8 -13.2 -10.2 l-10.3 -10.3 -59.3 59.3 -59.2 59.3 5 4.5 c12.2 11 34.6 26.6 52.3 36.5 44.9 25.2 89.8 38.6 144.2 43 42.8 3.5 97.8 -5.4 141.5 -22.7 46.6 -18.5 83.7 -43.3 119.5 -80 58.9 -60.4 92.1 -138 95.7 -223.7 0.5 -12.1 0.9 -15.7 2 -15.7 0.7 0 1.3 0.7 1.3 1.5 0 1.2 1.7 1.5 9.7 1.5 l9.6 0 -0.6 17.8 c-2.2 65.7 -25 133.5 -63.5 189.2 -53.2 76.8 -133.1 129.4 -224.7 148 -20 4.1 -34.4 5.9 -51.3 6.5 -8.1 0.3 -15.8 0.7 -17.2 0.8 -1.4 0.1 -5.6 0.1 -9.5 0z"/>
 </g>
 <g fill="#ffffff">
  <path d="M379.5 738.9 c-74.7 -6.8 -138.5 -33.1 -193.8 -79.8 l-7.7 -6.6 62.5 -62.5 62.5 -62.5 11.8 11.8 11.7 11.7 25 -25 c24.7 -24.7 25 -24.9 27 -23.1 5.5 5 14.9 6.8 22.8 4.2 3.7 -1.3 11 -8.4 12.1 -11.9 0.5 -1.5 2.6 -2.7 7.4 -4.3 22.1 -7.2 51.1 -22.9 70.7 -38.4 4.4 -3.5 24.9 -23.3 45.5 -43.9 l37.5 -37.6 -71.5 -71.5 -71.5 -71.5 -40.1 40.2 c-42.2 42.4 -47 48.1 -61.8 72.1 -7.8 12.6 -17.6 32 -20.1 39.6 -1 2.9 -2.5 6 -3.4 6.7 -0.9 0.8 -3.4 2.9 -5.5 4.7 -2.2 1.7 -4.7 5 -5.7 7.2 -2.3 4.9 -2.4 13.3 -0.4 18.2 l1.6 3.7 -25.1 25.1 -25 25 12 12 12 12 -62.3 62.3 -62.2 62.2 -7.7 -9.8 c-38.9 -50 -61.8 -106.8 -70 -173.2 -1.7 -13.7 -1.7 -58.3 0 -72 5.8 -47.4 17.9 -86.4 38.8 -125.2 16.6 -30.8 32.8 -52.4 58.8 -78.4 18.3 -18.3 30.5 -28.6 48.1 -40.6 47.4 -32.3 98.8 -51.3 157 -58 16.1 -1.9 58.8 -1.5 75.5 0.5 55.8 7 106.3 26 152.5 57.5 30.5 20.8 63.1 52.9 85.1 83.7 23.5 32.9 41.9 72.9 51.8 112.5 7.5 29.8 10.1 51.2 10.1 84 0 51.9 -9 93.9 -30.2 141.5 -21.7 48.5 -60.4 96.6 -104.8 130.2 -47.5 35.9 -104.1 58.5 -165 65.9 -15.6 1.8 -52.1 2.6 -66 1.3z m223.5 -539.4 l-53 -53 -44.2 44.3 -44.3 44.2 53 53 53 53 44.2 -44.2 44.3 -44.3 -53 -53z"/>
  <path d="M592 257.5 l-10.5 -10.5 8 -8 8 -8 10.7 10.7 10.8 10.8 -7.7 7.7 c-4.3 4.3 -8 7.8 -8.3 7.8 -0.3 0 -5.2 -4.7 -11 -10.5z"/>
  <path d="M542 206.5 l-10.5 -10.5 7.5 -7.5 c4.1 -4.1 7.9 -7.5 8.5 -7.5 1.3 0 20.5 19.2 20.5 20.5 0 1 -14 15.5 -15 15.5 -0.3 0 -5.2 -4.7 -11 -10.5z"/>
 </g>
</svg>